<?xml version="1.0" encoding="UTF-8"?>
<!DOCTYPE svg PUBLIC "-//W3C//DTD SVG 1.1//EN" "http://www.w3.org/Graphics/SVG/1.1/DTD/svg11.dtd">
<!-- Creator: CorelDRAW -->
<svg xmlns="http://www.w3.org/2000/svg" xml:space="preserve" width="2048px" height="2048px" style="shape-rendering:geometricPrecision; text-rendering:geometricPrecision; image-rendering:optimizeQuality; fill-rule:evenodd; clip-rule:evenodd"
viewBox="0 0 2048 2048"
 xmlns:xlink="http://www.w3.org/1999/xlink">
 <defs>
  <style type="text/css">
   <![CDATA[
    .fil1 {fill:none}
    .fil6 {fill:#B71C1C}
    .fil7 {fill:#424242;fill-rule:nonzero}
    .fil4 {fill:#616161;fill-rule:nonzero}
    .fil2 {fill:#C62828;fill-rule:nonzero}
    .fil3 {fill:#E53935;fill-rule:nonzero}
    .fil5 {fill:#EEEEEE;fill-rule:nonzero}
    .fil0 {fill:#FFD180;fill-rule:nonzero}
   ]]>
  </style>
 </defs>
 <g id="Layer_x0020_1">
  <metadata id="CorelCorpID_0Corel-Layer"/>
  <path class="fil0" d="M1792 671.999l0 1044.74c0,20.6776 -8.54292,39.4772 -22.3004,53.1083 -13.7386,13.6075 -32.6055,22.0547 -53.2867,22.0547l-1384.83 0c-20.6799,0 -39.5492,-8.44725 -53.2878,-22.0547 -13.7575,-13.6288 -22.3004,-32.4307 -22.3004,-53.1083l0 -1044.74 1536 0z"/>
  <rect class="fil1" x="256" y="255.999" width="1536" height="1536"/>
  <rect class="fil1" width="2048" height="2048"/>
  <path class="fil2" d="M331.586 409.594c537.329,0 852.53,0 1384.83,0 20.6811,0 39.5469,8.44843 53.2855,22.0559 13.7599,13.6299 22.3016,32.4331 22.3016,53.1071l0 226.858 -1536 0.126378 0 -226.984c0,-20.6788 8.54056,-39.4796 22.2992,-53.1083 13.7386,-13.6075 32.6055,-22.0547 53.289,-22.0547z"/>
  <path class="fil3" d="M331.586 409.594c537.329,0 852.53,0 1384.83,0 20.6811,0 39.5469,8.44843 53.2855,22.0559 13.7599,13.6299 22.3016,32.4331 22.3016,53.1071l0 187.243 -1536 0.126378 0 -187.369c0,-20.6788 8.54056,-39.4796 22.2992,-53.1083 13.7386,-13.6075 32.6055,-22.0547 53.289,-22.0547z"/>
  <g id="_527586208">
   <polygon id="_527592568" class="fil4" points="556.735,855.797 377.379,855.797 377.379,1035.15 556.735,1035.15 "/>
   <polygon id="_527583304" class="fil5" points="556.735,1142.27 377.379,1142.27 377.379,1321.63 556.735,1321.63 "/>
   <polygon id="_527591320" class="fil5" points="556.735,1428.75 377.379,1428.75 377.379,1608.1 556.735,1608.1 "/>
   <polygon id="_527597152" class="fil5" points="835.207,855.797 655.85,855.797 655.85,1035.15 835.207,1035.15 "/>
   <polygon id="_527580184" class="fil5" points="835.207,1142.27 655.85,1142.27 655.85,1321.63 835.207,1321.63 "/>
   <polygon id="_527584600" class="fil4" points="835.207,1428.75 655.85,1428.75 655.85,1608.1 835.207,1608.1 "/>
   <polygon id="_527596192" class="fil5" points="1113.68,855.797 934.321,855.797 934.321,1035.15 1113.68,1035.15 "/>
   <polygon id="_527596768" class="fil4" points="1113.68,1142.27 934.321,1142.27 934.321,1321.63 1113.68,1321.63 "/>
   <polygon id="_527585368" class="fil5" points="1113.68,1428.75 934.321,1428.75 934.321,1608.1 1113.68,1608.1 "/>
   <polygon id="_527589568" class="fil4" points="1392.15,855.797 1212.79,855.797 1212.79,1035.15 1392.15,1035.15 "/>
   <polygon id="_527595976" class="fil5" points="1392.15,1142.27 1212.79,1142.27 1212.79,1321.63 1392.15,1321.63 "/>
   <polygon id="_527578072" class="fil5" points="1392.15,1428.75 1212.79,1428.75 1212.79,1608.1 1392.15,1608.1 "/>
   <polygon id="_527595304" class="fil5" points="1670.62,855.797 1491.26,855.797 1491.26,1035.15 1670.62,1035.15 "/>
   <polygon id="_527606680" class="fil5" points="1670.62,1142.27 1491.26,1142.27 1491.26,1321.63 1670.62,1321.63 "/>
   <polygon id="_527589928" class="fil4" points="1670.62,1428.75 1491.26,1428.75 1491.26,1608.1 1670.62,1608.1 "/>
  </g>
  <circle class="fil6" cx="587.773" cy="507.173" r="55.2302"/>
  <circle class="fil6" cx="1463.23" cy="507.173" r="55.2302"/>
  <g id="_527593696">
   <path id="_527578792" class="fil7" d="M626 287.999c0,-22.0914 -17.9091,-40.0004 -40.0004,-40.0004 -22.0914,0 -40.0004,17.9091 -40.0004,40.0004l0 192c0,22.0914 17.9091,40.0004 40.0004,40.0004 22.0914,0 40.0004,-17.9091 40.0004,-40.0004l0 -192z"/>
   <path id="_527583784" class="fil7" d="M1502 287.999c0,-22.0914 -17.9091,-40.0004 -40.0004,-40.0004 -22.0914,0 -40.0004,17.9091 -40.0004,40.0004l0 192c0,22.0914 17.9091,40.0004 40.0004,40.0004 22.0914,0 40.0004,-17.9091 40.0004,-40.0004l0 -192z"/>
  </g>
 </g>
</svg>
